<mxfile host="app.diagrams.net" modified="2023-05-11T23:30:36.610Z" agent="Mozilla/5.0 (X11; Linux x86_64) AppleWebKit/537.36 (KHTML, like Gecko) Chrome/113.0.0.0 Safari/537.36" etag="zE3iCWoF3ZQRbUqarMiP" version="21.2.9" type="github">
  <diagram name="Page-1" id="2YBvvXClWsGukQMizWep">
    <mxGraphModel dx="1134" dy="1170" grid="1" gridSize="10" guides="1" tooltips="1" connect="1" arrows="1" fold="1" page="1" pageScale="1" pageWidth="850" pageHeight="1100" math="0" shadow="0">
      <root>
        <mxCell id="0" />
        <mxCell id="1" parent="0" />
        <mxCell id="_WkzvzqrcnxessMukqqC-30" value="" style="endArrow=classic;html=1;rounded=0;" edge="1" parent="1">
          <mxGeometry width="50" height="50" relative="1" as="geometry">
            <mxPoint x="231" y="284" as="sourcePoint" />
            <mxPoint x="111" y="284" as="targetPoint" />
          </mxGeometry>
        </mxCell>
        <mxCell id="aM9ryv3xv72pqoxQDRHE-5" value="Instruction from User" style="shape=umlLifeline;perimeter=lifelinePerimeter;whiteSpace=wrap;html=1;container=0;dropTarget=0;collapsible=0;recursiveResize=0;outlineConnect=0;portConstraint=eastwest;newEdgeStyle={&quot;edgeStyle&quot;:&quot;elbowEdgeStyle&quot;,&quot;elbow&quot;:&quot;vertical&quot;,&quot;curved&quot;:0,&quot;rounded&quot;:0};fontStyle=1;fontSize=20;" parent="1" vertex="1">
          <mxGeometry x="267" y="40" width="270" height="940" as="geometry" />
        </mxCell>
        <mxCell id="_WkzvzqrcnxessMukqqC-1" value="&lt;b&gt;Instruction Agent&lt;br&gt;&lt;br&gt;&lt;br&gt;&lt;br&gt;&lt;br&gt;&lt;br&gt;&lt;/b&gt;" style="rounded=0;whiteSpace=wrap;html=1;" vertex="1" parent="1">
          <mxGeometry x="191" y="110" width="420" height="110" as="geometry" />
        </mxCell>
        <mxCell id="_WkzvzqrcnxessMukqqC-2" value="Suggestion Action #1" style="rounded=0;whiteSpace=wrap;html=1;" vertex="1" parent="1">
          <mxGeometry x="206" y="135" width="120" height="60" as="geometry" />
        </mxCell>
        <mxCell id="_WkzvzqrcnxessMukqqC-3" value="Suggested Action #2" style="rounded=0;whiteSpace=wrap;html=1;" vertex="1" parent="1">
          <mxGeometry x="342" y="135" width="120" height="60" as="geometry" />
        </mxCell>
        <mxCell id="_WkzvzqrcnxessMukqqC-4" value="Suggested Action #3" style="rounded=0;whiteSpace=wrap;html=1;" vertex="1" parent="1">
          <mxGeometry x="476" y="135" width="120" height="60" as="geometry" />
        </mxCell>
        <mxCell id="_WkzvzqrcnxessMukqqC-5" value="&lt;b&gt;Validation Agent&lt;/b&gt;&lt;br&gt;Enforces formatting and requests an improved response." style="rounded=0;whiteSpace=wrap;html=1;" vertex="1" parent="1">
          <mxGeometry x="239.5" y="330" width="325" height="50" as="geometry" />
        </mxCell>
        <mxCell id="_WkzvzqrcnxessMukqqC-6" value="&lt;b&gt;Problem Solving Agent&lt;/b&gt;&lt;br&gt;&lt;br&gt;&lt;br&gt;&lt;br&gt;&lt;br&gt;&lt;br&gt;" style="rounded=0;whiteSpace=wrap;html=1;" vertex="1" parent="1">
          <mxGeometry x="196" y="420" width="420" height="110" as="geometry" />
        </mxCell>
        <mxCell id="_WkzvzqrcnxessMukqqC-7" value="Solution #1" style="rounded=0;whiteSpace=wrap;html=1;" vertex="1" parent="1">
          <mxGeometry x="217" y="445" width="120" height="60" as="geometry" />
        </mxCell>
        <mxCell id="_WkzvzqrcnxessMukqqC-8" value="Solution #2" style="rounded=0;whiteSpace=wrap;html=1;" vertex="1" parent="1">
          <mxGeometry x="352" y="445" width="120" height="60" as="geometry" />
        </mxCell>
        <mxCell id="_WkzvzqrcnxessMukqqC-9" value="Solution #3" style="rounded=0;whiteSpace=wrap;html=1;" vertex="1" parent="1">
          <mxGeometry x="486" y="445" width="120" height="60" as="geometry" />
        </mxCell>
        <mxCell id="_WkzvzqrcnxessMukqqC-10" value="&lt;b&gt;Research Agent&lt;/b&gt;&lt;br&gt;Determines which results have flaws/issues and calls them out to be fixed by the problem solving agent." style="rounded=0;whiteSpace=wrap;html=1;" vertex="1" parent="1">
          <mxGeometry x="239.5" y="250" width="325" height="50" as="geometry" />
        </mxCell>
        <mxCell id="_WkzvzqrcnxessMukqqC-15" value="&lt;b&gt;Solution Agent&lt;/b&gt;&lt;br&gt;Chooses the best solution from the problem solving agent and improves on it based context." style="rounded=0;whiteSpace=wrap;html=1;" vertex="1" parent="1">
          <mxGeometry x="239.5" y="570" width="325" height="50" as="geometry" />
        </mxCell>
        <mxCell id="_WkzvzqrcnxessMukqqC-16" value="&lt;b&gt;Validation Agent&lt;/b&gt;&lt;br&gt;Enforces formatting and requests an improved response." style="rounded=0;whiteSpace=wrap;html=1;" vertex="1" parent="1">
          <mxGeometry x="238.5" y="650" width="325" height="50" as="geometry" />
        </mxCell>
        <mxCell id="_WkzvzqrcnxessMukqqC-17" value="&lt;b&gt;Execution Agent&lt;/b&gt;&lt;br&gt;Executes commands from the Solution Agent and returns outputs." style="rounded=0;whiteSpace=wrap;html=1;" vertex="1" parent="1">
          <mxGeometry x="238.5" y="730" width="325" height="50" as="geometry" />
        </mxCell>
        <mxCell id="_WkzvzqrcnxessMukqqC-20" value="&lt;b&gt;Validation Agent&lt;/b&gt;&lt;br&gt;Enforces formatting and requests an improved response." style="rounded=0;whiteSpace=wrap;html=1;" vertex="1" parent="1">
          <mxGeometry x="238.5" y="810" width="325" height="50" as="geometry" />
        </mxCell>
        <mxCell id="_WkzvzqrcnxessMukqqC-22" value="Final Output" style="rounded=0;whiteSpace=wrap;html=1;fontStyle=1;fontSize=17;" vertex="1" parent="1">
          <mxGeometry x="342" y="980" width="120" height="60" as="geometry" />
        </mxCell>
        <mxCell id="_WkzvzqrcnxessMukqqC-24" value="&lt;b&gt;&lt;font style=&quot;font-size: 18px;&quot;&gt;Commands&lt;/font&gt;&lt;/b&gt;&lt;br&gt;&lt;br&gt;Web Browsing&lt;br&gt;&lt;br&gt;Terminal Access&lt;br&gt;&lt;br&gt;Python Scripting&lt;br&gt;&lt;br&gt;Database Access&lt;br&gt;&lt;br&gt;Software API&lt;br&gt;&lt;br&gt;Etc" style="rounded=0;whiteSpace=wrap;html=1;" vertex="1" parent="1">
          <mxGeometry y="10" width="100" height="1040" as="geometry" />
        </mxCell>
        <mxCell id="_WkzvzqrcnxessMukqqC-25" value="&lt;b&gt;&lt;font style=&quot;font-size: 18px;&quot;&gt;Memories&lt;/font&gt;&lt;/b&gt;" style="rounded=0;whiteSpace=wrap;html=1;" vertex="1" parent="1">
          <mxGeometry x="720" y="10" width="120" height="1040" as="geometry" />
        </mxCell>
        <mxCell id="_WkzvzqrcnxessMukqqC-27" value="" style="endArrow=classic;html=1;rounded=0;" edge="1" parent="1">
          <mxGeometry width="50" height="50" relative="1" as="geometry">
            <mxPoint x="120" y="60" as="sourcePoint" />
            <mxPoint x="240" y="60" as="targetPoint" />
          </mxGeometry>
        </mxCell>
        <mxCell id="_WkzvzqrcnxessMukqqC-28" value="" style="endArrow=classic;html=1;rounded=0;" edge="1" parent="1">
          <mxGeometry width="50" height="50" relative="1" as="geometry">
            <mxPoint x="110" y="270" as="sourcePoint" />
            <mxPoint x="230" y="270" as="targetPoint" />
          </mxGeometry>
        </mxCell>
        <mxCell id="_WkzvzqrcnxessMukqqC-29" value="" style="endArrow=classic;html=1;rounded=0;" edge="1" parent="1">
          <mxGeometry width="50" height="50" relative="1" as="geometry">
            <mxPoint x="111" y="470" as="sourcePoint" />
            <mxPoint x="191" y="470" as="targetPoint" />
          </mxGeometry>
        </mxCell>
        <mxCell id="_WkzvzqrcnxessMukqqC-31" value="" style="endArrow=classic;html=1;rounded=0;" edge="1" parent="1">
          <mxGeometry width="50" height="50" relative="1" as="geometry">
            <mxPoint x="110" y="594.29" as="sourcePoint" />
            <mxPoint x="230" y="594.29" as="targetPoint" />
          </mxGeometry>
        </mxCell>
        <mxCell id="_WkzvzqrcnxessMukqqC-32" value="" style="endArrow=classic;html=1;rounded=0;" edge="1" parent="1">
          <mxGeometry width="50" height="50" relative="1" as="geometry">
            <mxPoint x="110" y="740" as="sourcePoint" />
            <mxPoint x="230" y="740" as="targetPoint" />
          </mxGeometry>
        </mxCell>
        <mxCell id="_WkzvzqrcnxessMukqqC-33" value="" style="endArrow=classic;html=1;rounded=0;" edge="1" parent="1">
          <mxGeometry width="50" height="50" relative="1" as="geometry">
            <mxPoint x="230" y="760" as="sourcePoint" />
            <mxPoint x="110" y="760" as="targetPoint" />
          </mxGeometry>
        </mxCell>
        <mxCell id="_WkzvzqrcnxessMukqqC-34" value="" style="endArrow=classic;startArrow=classic;html=1;rounded=0;" edge="1" parent="1">
          <mxGeometry width="50" height="50" relative="1" as="geometry">
            <mxPoint x="580" y="274" as="sourcePoint" />
            <mxPoint x="700" y="274" as="targetPoint" />
          </mxGeometry>
        </mxCell>
        <mxCell id="_WkzvzqrcnxessMukqqC-36" value="" style="endArrow=classic;startArrow=classic;html=1;rounded=0;" edge="1" parent="1">
          <mxGeometry width="50" height="50" relative="1" as="geometry">
            <mxPoint x="630" y="164.29000000000002" as="sourcePoint" />
            <mxPoint x="700" y="164.29000000000002" as="targetPoint" />
          </mxGeometry>
        </mxCell>
        <mxCell id="_WkzvzqrcnxessMukqqC-37" value="" style="endArrow=classic;html=1;rounded=0;" edge="1" parent="1">
          <mxGeometry width="50" height="50" relative="1" as="geometry">
            <mxPoint x="690" y="60" as="sourcePoint" />
            <mxPoint x="570" y="60" as="targetPoint" />
          </mxGeometry>
        </mxCell>
        <mxCell id="_WkzvzqrcnxessMukqqC-40" value="" style="endArrow=classic;startArrow=classic;html=1;rounded=0;" edge="1" parent="1">
          <mxGeometry width="50" height="50" relative="1" as="geometry">
            <mxPoint x="630" y="474.29" as="sourcePoint" />
            <mxPoint x="700" y="474.29" as="targetPoint" />
          </mxGeometry>
        </mxCell>
        <mxCell id="_WkzvzqrcnxessMukqqC-41" value="" style="endArrow=classic;startArrow=classic;html=1;rounded=0;" edge="1" parent="1">
          <mxGeometry width="50" height="50" relative="1" as="geometry">
            <mxPoint x="580" y="594" as="sourcePoint" />
            <mxPoint x="700" y="594" as="targetPoint" />
          </mxGeometry>
        </mxCell>
        <mxCell id="_WkzvzqrcnxessMukqqC-42" value="" style="endArrow=classic;startArrow=classic;html=1;rounded=0;" edge="1" parent="1">
          <mxGeometry width="50" height="50" relative="1" as="geometry">
            <mxPoint x="580" y="754" as="sourcePoint" />
            <mxPoint x="710" y="754" as="targetPoint" />
          </mxGeometry>
        </mxCell>
      </root>
    </mxGraphModel>
  </diagram>
</mxfile>
